<svg width="792" height="550" viewBox="0 0 792 550" fill="none" xmlns="http://www.w3.org/2000/svg">
<path d="M791.362 480.979H0V481.359H791.362V480.979Z" fill="#E6E6E6"/>
<path d="M180.209 493.164H125.763V493.544H180.209V493.164Z" fill="#E6E6E6"/>
<path d="M206.909 493.164H190.639V493.544H206.909V493.164Z" fill="#E6E6E6"/>
<path d="M287.185 485.704H256.544V486.084H287.185V485.704Z" fill="#E6E6E6"/>
<path d="M681.536 501.596H613.178V501.976H681.536V501.596Z" fill="#E6E6E6"/>
<path d="M705.657 501.596H695.638V501.976H705.657V501.596Z" fill="#E6E6E6"/>
<path d="M630.478 488.257H482.208V488.636H630.478V488.257Z" fill="#E6E6E6"/>
<path d="M663.193 273.916H552.291V480.979H663.193V273.916Z" fill="#F5F5F5"/>
<path d="M663.192 273.916H654.044V480.979H663.192V273.916Z" fill="#F0F0F0"/>
<path d="M305.497 324.553L560.838 324.553V279.826H305.497V324.553Z" fill="#E0E0E0"/>
<path d="M411.967 481.131H302.49C302.07 481.131 301.668 480.971 301.371 480.686C301.074 480.401 300.907 480.015 300.907 479.612C300.907 479.209 301.074 478.822 301.371 478.538C301.668 478.253 302.07 478.093 302.49 478.093H411.967C427.794 478.093 429.899 473.656 429.899 456.063V234.247C429.899 233.844 430.066 233.458 430.363 233.173C430.66 232.888 431.062 232.728 431.482 232.728C431.902 232.728 432.304 232.888 432.601 233.173C432.898 233.458 433.065 233.844 433.065 234.247V456.063C433.065 474.872 430.026 481.131 411.967 481.131Z" fill="#E0E0E0"/>
<path d="M315.31 290.248L660.692 290.248V274.721L315.31 274.721V290.248Z" fill="#F0F0F0"/>
<path d="M317.811 273.916H206.909V480.979H317.811V273.916Z" fill="#F5F5F5"/>
<path d="M317.795 273.916H308.647V480.979H317.795V273.916Z" fill="#F0F0F0"/>
<path d="M239.276 480.979L239.276 112.248H144.107L144.107 480.979H239.276Z" fill="#FAFAFA"/>
<path d="M234.053 204.347V123.02H149.33V204.347H234.053Z" fill="#F5F5F5"/>
<path d="M172.928 121.926H210.502C210.502 124.163 209.577 126.307 207.929 127.889C206.282 129.47 204.048 130.358 201.718 130.358H181.776C180.617 130.366 179.468 130.154 178.395 129.734C177.322 129.314 176.346 128.694 175.523 127.91C174.701 127.126 174.048 126.194 173.603 125.167C173.158 124.14 172.928 123.039 172.928 121.926Z" fill="#E0E0E0"/>
<path d="M234.037 292.967V211.64H149.314V292.967H234.037Z" fill="#F5F5F5"/>
<path d="M234.053 381.588V300.26H149.33V381.588H234.053Z" fill="#F5F5F5"/>
<path d="M234.053 470.223V388.895H149.33V470.223H234.053Z" fill="#F5F5F5"/>
<path d="M172.928 210.561H210.502C210.498 212.796 209.571 214.939 207.925 216.519C206.278 218.1 204.046 218.989 201.718 218.993H181.776C180.617 218.999 179.469 218.786 178.397 218.365C177.325 217.944 176.35 217.324 175.528 216.541C174.706 215.757 174.053 214.826 173.607 213.8C173.161 212.774 172.93 211.673 172.928 210.561Z" fill="#E0E0E0"/>
<path d="M172.928 299.181H210.502C210.502 301.418 209.577 303.562 207.929 305.144C206.282 306.725 204.048 307.613 201.718 307.613H181.776C180.617 307.621 179.468 307.409 178.395 306.989C177.322 306.569 176.346 305.949 175.523 305.165C174.701 304.381 174.048 303.449 173.603 302.422C173.158 301.395 172.928 300.294 172.928 299.181Z" fill="#E0E0E0"/>
<path d="M172.928 387.801H210.502C210.502 390.038 209.577 392.182 207.929 393.764C206.282 395.345 204.048 396.233 201.718 396.233H181.776C180.617 396.241 179.468 396.029 178.395 395.609C177.322 395.189 176.346 394.569 175.523 393.785C174.701 393.002 174.048 392.069 173.603 391.042C173.158 390.015 172.928 388.914 172.928 387.801Z" fill="#E0E0E0"/>
<path d="M144.107 480.979L144.107 112.248H96.5777L96.5777 480.979H144.107Z" fill="#F0F0F0"/>
<path d="M418.456 273.916H394.541L400.35 229.218H424.281L418.456 273.916Z" fill="#F0F0F0"/>
<path d="M423.758 273.916H399.827L405.652 229.218H429.567L423.758 273.916Z" fill="#F5F5F5"/>
<path d="M475.07 273.916H457.771L454.463 268.856H471.746L475.07 273.916Z" fill="#F0F0F0"/>
<path d="M567.754 273.916H463.057L459.749 268.856H553.637L567.754 273.916Z" fill="#FAFAFA"/>
<path d="M342.596 261.093H350.162C353.704 261.093 357.102 262.444 359.607 264.849C362.112 267.253 363.52 270.515 363.52 273.916H329.206C329.206 272.229 329.553 270.559 330.226 269.002C330.9 267.444 331.886 266.029 333.13 264.838C334.374 263.647 335.85 262.703 337.475 262.06C339.099 261.418 340.839 261.089 342.596 261.093Z" fill="#F0F0F0"/>
<path d="M426.655 251.567H402.74L405.652 229.218H429.567L426.655 251.567Z" fill="#F0F0F0"/>
<path d="M338.703 246.219H508.054C508.388 246.219 508.717 246.152 509.021 246.02C509.325 245.889 509.596 245.696 509.816 245.456C510.036 245.216 510.201 244.933 510.298 244.627C510.395 244.321 510.424 243.999 510.381 243.682L497.339 143.53C497.27 142.985 496.995 142.483 496.566 142.119C496.137 141.756 495.585 141.555 495.013 141.555H325.709C325.377 141.555 325.049 141.622 324.746 141.753C324.444 141.884 324.173 142.075 323.953 142.313C323.734 142.551 323.569 142.832 323.47 143.136C323.372 143.44 323.342 143.761 323.382 144.077L336.424 244.244C336.492 244.781 336.76 245.277 337.179 245.64C337.598 246.003 338.139 246.208 338.703 246.219Z" fill="#F0F0F0"/>
<path d="M341.267 246.219H510.507C510.841 246.219 511.17 246.152 511.474 246.02C511.778 245.889 512.049 245.696 512.269 245.456C512.489 245.216 512.654 244.933 512.751 244.627C512.849 244.321 512.877 243.999 512.834 243.682L499.792 143.53C499.719 142.986 499.444 142.486 499.016 142.123C498.588 141.76 498.037 141.558 497.466 141.555H328.225C327.893 141.555 327.565 141.622 327.263 141.753C326.96 141.884 326.69 142.075 326.47 142.313C326.25 142.551 326.085 142.832 325.987 143.136C325.888 143.44 325.858 143.761 325.898 144.077L338.94 244.244C339.01 244.789 339.285 245.291 339.713 245.655C340.142 246.019 340.695 246.219 341.267 246.219Z" fill="#F5F5F5"/>
<path d="M507.374 240.674L495.171 146.934C495.148 146.781 495.068 146.641 494.945 146.54C494.823 146.44 494.667 146.385 494.506 146.387H332.008C331.915 146.383 331.822 146.4 331.736 146.435C331.651 146.47 331.574 146.523 331.512 146.59C331.45 146.656 331.404 146.735 331.378 146.821C331.351 146.907 331.345 146.997 331.359 147.086L343.562 240.841C343.581 240.992 343.658 241.132 343.778 241.233C343.897 241.334 344.051 241.389 344.211 241.388H506.725C506.818 241.386 506.909 241.366 506.994 241.328C507.078 241.291 507.153 241.236 507.214 241.169C507.276 241.102 507.321 241.023 507.349 240.938C507.376 240.852 507.385 240.762 507.374 240.674Z" fill="#E0E0E0"/>
<path d="M445.521 273.916H406.554V273.445C406.554 272.457 406.963 271.511 407.69 270.813C408.417 270.115 409.403 269.722 410.432 269.722H441.643C442.671 269.722 443.658 270.115 444.385 270.813C445.112 271.511 445.521 272.457 445.521 273.445V273.916Z" fill="#FAFAFA"/>
<path d="M411.097 273.916H384.665V273.445C384.665 272.457 385.074 271.511 385.801 270.813C386.528 270.115 387.514 269.722 388.543 269.722H407.219C408.247 269.722 409.234 270.115 409.961 270.813C410.688 271.511 411.097 272.457 411.097 273.445V273.916Z" fill="#F0F0F0"/>
<path d="M184.324 70.6046V70.5287C184.688 69.3588 185.036 68.1738 185.337 66.9887C185.873 67.8079 186.602 68.4946 187.465 68.9934C188.328 69.4922 189.302 69.7891 190.307 69.8602H190.734C193.377 69.6171 195.91 67.1559 197.508 63.2817C197.539 63.212 197.555 63.1371 197.555 63.0614C197.555 62.9857 197.539 62.9107 197.508 62.8411C197.431 62.7023 197.301 62.5985 197.144 62.5524C195.247 62.0908 193.27 62.0187 191.341 62.3407C189.413 62.6627 187.578 63.3716 185.954 64.4211C186.192 63.2969 186.397 62.1574 186.572 61.0331C186.989 61.1104 187.413 61.1511 187.838 61.1547C192.143 61.1547 195.308 57.4628 195.466 57.2805C195.522 57.2135 195.561 57.1349 195.579 57.051C195.597 56.9671 195.595 56.8803 195.572 56.7975C195.549 56.7147 195.506 56.6383 195.446 56.5744C195.386 56.5105 195.312 56.4609 195.229 56.4297C194.229 55.9531 193.135 55.6851 192.019 55.6432C190.904 55.6013 189.791 55.7865 188.756 56.1866C187.65 56.7264 186.756 57.5951 186.207 58.663C185.401 56.2856 183.927 54.168 181.947 52.5435C179.967 50.919 177.558 49.8507 174.986 49.4562C174.906 49.438 174.823 49.4382 174.743 49.4567C174.664 49.4752 174.589 49.5114 174.527 49.5625C174.461 49.6073 174.406 49.6663 174.368 49.7349C174.329 49.8035 174.308 49.8797 174.305 49.9575C174.084 53.7102 174.21 58.3136 177.138 60.5014C178.363 61.3684 179.86 61.8079 181.38 61.7472C182.742 61.7157 184.094 61.5113 185.4 61.1395C184.982 63.8547 184.374 66.5398 183.58 69.1765C180.716 65.4301 176.652 62.6873 172.01 61.3674C171.864 61.3346 171.709 61.3573 171.58 61.4309C171.45 61.5045 171.355 61.6232 171.314 61.7624C170.428 64.9985 170.887 67.6268 172.628 69.3588C173.513 70.1223 174.55 70.7068 175.675 71.0774C176.801 71.4481 177.993 71.5973 179.18 71.5162C180.456 71.5084 181.728 71.3812 182.979 71.1364C182.251 73.3545 181.396 75.5271 180.589 77.5934C178.832 76.0741 173.657 72.3062 168.022 73.8863C167.871 73.9344 167.745 74.0382 167.674 74.175C167.643 74.2446 167.627 74.3196 167.627 74.3953C167.627 74.471 167.643 74.5459 167.674 74.6156C169.257 78.2011 170.95 80.1913 173.134 80.875C173.716 81.0593 174.326 81.1516 174.938 81.1485C176.611 81.0803 178.241 80.6214 179.687 79.8115C178.484 82.5614 177.202 85.129 175.983 87.408C174.537 85.9919 172.719 84.9765 170.722 84.4685C168.725 83.9605 166.622 83.9787 164.635 84.5213C164.499 84.5471 164.379 84.6206 164.297 84.7275C164.215 84.8343 164.177 84.9667 164.192 85.0986C164.332 86.2477 164.784 87.3411 165.504 88.2691C166.223 89.1971 167.185 89.9271 168.291 90.3858C169.126 90.7304 170.026 90.9062 170.934 90.9023C172.195 90.8872 173.433 90.5796 174.543 90.0059C173.308 92.2089 172.169 94.0472 171.282 95.445H160.52C158.811 92.6343 156.832 89.14 154.901 85.2202C155.801 85.4779 156.733 85.616 157.671 85.6304C158.825 85.6442 159.967 85.4026 161.008 84.9245C162.05 84.4464 162.962 83.7445 163.676 82.8733C164.389 82.0021 164.883 80.985 165.121 79.9008C165.359 78.8165 165.333 77.6943 165.046 76.621C165.009 76.4964 164.926 76.389 164.813 76.3191C164.699 76.2491 164.563 76.2214 164.429 76.2412C162.231 76.447 160.117 77.1577 158.266 78.3133C156.415 79.469 154.881 81.0355 153.793 82.8805C152.527 80.1458 151.293 77.2439 150.216 74.2509C151.586 74.9991 153.121 75.426 154.695 75.4967C155.32 75.5036 155.942 75.4059 156.531 75.2081C159.697 74.2053 161.517 70.5439 163.068 66.7456C163.103 66.6771 163.121 66.6017 163.121 66.5254C163.121 66.449 163.103 66.3736 163.068 66.3051C163.032 66.2353 162.98 66.1736 162.918 66.1239C162.855 66.0742 162.782 66.0376 162.704 66.0164C156.373 64.3148 151.166 70.164 149.552 72.2607C148.707 69.7309 148.005 67.1596 147.447 64.5579C148.777 64.8077 150.127 64.94 151.483 64.9529C152.829 65.0474 154.182 64.875 155.456 64.4463C156.73 64.0177 157.899 63.342 158.89 62.4613C160.805 60.5166 161.264 57.5995 160.235 54.0444C160.217 53.9747 160.184 53.9093 160.139 53.8521C160.093 53.7949 160.036 53.7471 159.971 53.7116C159.906 53.6761 159.834 53.6536 159.76 53.6455C159.686 53.6375 159.61 53.6439 159.539 53.6646C154.488 55.1775 150.091 58.2348 147.019 62.3701L146.782 60.9875C146.765 60.8679 146.71 60.7564 146.624 60.6685C146.363 59.7696 145.908 58.9332 145.289 58.2135C144.67 57.4939 143.901 56.9068 143.031 56.4905C141.889 56.0676 140.667 55.8815 139.445 55.9443C138.223 56.0072 137.028 56.3175 135.94 56.8551C135.857 56.8898 135.782 56.9419 135.722 57.0075C135.662 57.0732 135.617 57.1508 135.592 57.2349C135.573 57.3174 135.574 57.4032 135.596 57.4851C135.618 57.567 135.66 57.6427 135.719 57.7059C135.877 57.9034 139.359 61.8535 144.044 61.8535C144.549 61.8473 145.052 61.7964 145.547 61.7016C145.753 62.993 146.006 64.2844 146.291 65.5606C144.486 64.42 142.45 63.6597 140.317 63.3297C138.183 62.9998 136.001 63.1077 133.914 63.6463C133.758 63.6924 133.627 63.7962 133.55 63.935C133.519 64.0072 133.503 64.0846 133.503 64.1629C133.503 64.2411 133.519 64.3185 133.55 64.3907C135.37 68.6144 138.188 71.2883 141.1 71.5162H141.496C142.967 71.5162 144.962 70.8629 146.988 68.2649C147.785 71.219 148.747 74.13 149.868 76.9856C147.13 75.7398 140.973 73.5976 136.573 76.8641C136.513 76.9061 136.462 76.9594 136.423 77.0207C136.385 77.0821 136.36 77.1503 136.349 77.2213C136.339 77.2922 136.344 77.3644 136.363 77.4336C136.383 77.5028 136.416 77.5674 136.463 77.6238C139.311 81.346 141.939 83.154 144.519 83.154C146.655 83.154 148.697 81.8626 150.739 79.3102C151.91 82.1056 153.176 84.7796 154.426 87.2408C151.688 85.6152 148.681 85.8735 145.136 88.0157C145.054 88.0629 144.986 88.1297 144.939 88.2096C144.892 88.2894 144.867 88.3797 144.867 88.4715C144.86 88.5609 144.879 88.6503 144.921 88.7305C144.962 88.8106 145.026 88.8786 145.104 88.9272C147.216 90.3882 149.709 91.2562 152.306 91.4341C153.645 91.4596 154.958 91.0766 156.057 90.3402C157.07 92.2089 158.067 93.9257 158.985 95.4602H154.094V98.1341H155.867L157.339 112.294H179.006L180.462 98.1341H182.251V95.4602H172.517C173.593 93.7434 174.97 91.4493 176.442 88.7601C176.486 88.706 176.518 88.644 176.537 88.5778C176.917 87.8941 177.281 87.1953 177.661 86.466C178.304 87.4009 179.172 88.1742 180.191 88.7214C181.21 89.2685 182.35 89.5735 183.517 89.6109C183.759 89.626 184.002 89.626 184.245 89.6109C185.534 89.4707 186.758 88.9904 187.78 88.2235C188.803 87.4565 189.584 86.4328 190.038 85.2658C190.084 85.1459 190.085 85.0138 190.038 84.8937C189.992 84.7737 189.902 84.6738 189.784 84.6125C188.125 83.7126 186.266 83.2047 184.362 83.1307C182.457 83.0568 180.562 83.4188 178.832 84.1871C179.655 82.5311 180.415 80.7535 181.238 78.9151C181.3 78.847 181.339 78.7621 181.349 78.6721C181.57 78.1555 181.776 77.6389 181.997 77.1528C183.881 79.4317 185.748 80.556 187.695 80.556C190.054 80.556 192.443 78.8848 195.007 75.436C195.096 75.3207 195.135 75.1765 195.114 75.0344C195.093 74.8923 195.015 74.7637 194.897 74.6763C190.861 71.7745 185.4 73.7648 182.836 74.9194C183.359 73.5521 183.833 72.1695 184.277 70.7566L184.324 70.6046Z" fill="#E0E0E0"/>
<path d="M636.999 64.1931H556.058V149.501H636.999V64.1931Z" fill="#E0E0E0"/>
<path d="M627.012 67.6876C626.944 67.7031 626.873 67.7031 626.806 67.6876C626.616 67.5661 607.496 56.6576 601.482 56.6576C595.468 56.6576 577.187 67.566 576.997 67.6724C576.954 67.6998 576.906 67.7184 576.855 67.7271C576.804 67.7359 576.751 67.7345 576.701 67.7231C576.651 67.7117 576.603 67.6906 576.562 67.6609C576.52 67.6313 576.485 67.5939 576.459 67.5509C576.406 67.4659 576.389 67.3644 576.413 67.2678C576.437 67.1713 576.499 67.0875 576.586 67.0343C577.345 66.5785 595.183 55.8979 601.482 55.8979C607.781 55.8979 626.489 66.5329 627.281 67.0343C627.325 67.0592 627.364 67.0926 627.395 67.1325C627.426 67.1724 627.448 67.218 627.46 67.2663C627.472 67.3147 627.473 67.3649 627.464 67.4138C627.455 67.4628 627.436 67.5094 627.407 67.5509C627.363 67.6085 627.301 67.6523 627.231 67.6766C627.16 67.7009 627.084 67.7047 627.012 67.6876Z" fill="#EBEBEB"/>
<path d="M645.751 64.1931H562.152V149.501H645.751V64.1931Z" fill="#F5F5F5"/>
<path d="M638.756 142.771V70.9085H569.163V142.771H638.756Z" fill="#F0F0F0"/>
<path d="M617.438 119.786C624.886 112.636 624.886 101.045 617.438 93.8952C609.99 86.7457 597.914 86.7458 590.466 93.8953C583.018 101.045 583.018 112.636 590.466 119.786C597.914 126.935 609.99 126.935 617.438 119.786Z" fill="#E0E0E0"/>
<path d="M602.337 377.44H673.274C679.783 377.445 686.035 374.999 690.684 370.626C695.334 366.254 698.011 360.305 698.139 354.058L700.798 229.385C700.846 227.072 700.414 224.772 699.524 222.621C698.635 220.47 697.308 218.511 695.621 216.858C693.933 215.206 691.919 213.893 689.696 212.997C687.473 212.101 685.087 211.64 682.676 211.64H638.201C633.752 211.639 629.458 213.21 626.139 216.055C622.819 218.899 620.707 222.817 620.206 227.061L602.337 377.44Z" fill="#E6E6E6"/>
<path d="M641.05 377.44H565.46C564.519 377.44 563.618 377.081 562.953 376.443C562.288 375.805 561.914 374.939 561.914 374.037V373.718C561.914 371.244 562.938 368.871 564.761 367.121C566.583 365.372 569.055 364.389 571.632 364.389H641.05V377.44Z" fill="#E6E6E6"/>
<path d="M635.084 482.681C634.716 482.689 634.356 482.573 634.067 482.354C633.778 482.135 633.578 481.826 633.501 481.481L611.343 378.959H572.724L550.566 481.481C550.48 481.884 550.231 482.237 549.873 482.464C549.516 482.69 549.079 482.771 548.659 482.688C548.239 482.606 547.871 482.367 547.635 482.023C547.399 481.68 547.315 481.261 547.401 480.858L569.844 377.136C569.918 376.788 570.117 376.475 570.406 376.253C570.695 376.031 571.056 375.913 571.426 375.921H612.577C612.948 375.913 613.309 376.031 613.598 376.253C613.887 376.475 614.086 376.788 614.16 377.136L636.587 480.858C636.672 481.25 636.591 481.659 636.363 481.995C636.134 482.331 635.777 482.567 635.369 482.651C635.275 482.672 635.18 482.682 635.084 482.681Z" fill="#E6E6E6"/>
<path d="M611.01 482.681C610.905 482.696 610.799 482.696 610.694 482.681C610.49 482.641 610.296 482.563 610.124 482.451C609.952 482.339 609.804 482.196 609.689 482.03C609.575 481.863 609.495 481.677 609.456 481.481C609.416 481.285 609.417 481.083 609.459 480.888L631.902 377.166C631.976 376.818 632.175 376.505 632.464 376.283C632.753 376.061 633.114 375.944 633.485 375.951H674.636C675.006 375.944 675.367 376.061 675.656 376.283C675.945 376.505 676.144 376.818 676.218 377.166L698.646 480.888C698.688 481.087 698.689 481.293 698.649 481.493C698.609 481.693 698.528 481.883 698.411 482.053C698.295 482.223 698.144 482.37 697.968 482.484C697.792 482.598 697.595 482.678 697.387 482.719C697.179 482.76 696.965 482.761 696.757 482.722C696.549 482.684 696.35 482.606 696.173 482.494C695.996 482.382 695.844 482.237 695.725 482.069C695.606 481.9 695.523 481.71 695.48 481.511L673.322 378.989H634.672L612.514 481.511C612.433 481.838 612.242 482.13 611.97 482.342C611.698 482.554 611.36 482.673 611.01 482.681Z" fill="#E6E6E6"/>
<path d="M395.681 549.59C565.163 549.59 702.555 541.89 702.555 532.392C702.555 522.894 565.163 515.194 395.681 515.194C226.199 515.194 88.8066 522.894 88.8066 532.392C88.8066 541.89 226.199 549.59 395.681 549.59Z" fill="#F5F5F5"/>
<path d="M422.761 518.354C422.265 518.353 421.785 518.187 421.401 517.886C421.018 517.584 420.754 517.164 420.656 516.698L390.584 374.553H338.212L308.14 516.698C307.997 517.204 307.658 517.639 307.193 517.915C306.727 518.19 306.17 518.285 305.635 518.181C305.099 518.077 304.625 517.78 304.308 517.353C303.991 516.925 303.856 516.397 303.93 515.877L334.35 372.077C334.451 371.612 334.715 371.194 335.098 370.892C335.481 370.591 335.96 370.425 336.455 370.421H392.325C392.821 370.422 393.301 370.587 393.685 370.889C394.069 371.191 394.332 371.61 394.43 372.077L424.866 515.877C424.978 516.413 424.864 516.97 424.55 517.425C424.236 517.881 423.746 518.198 423.188 518.308L422.761 518.354Z" fill="#29ABE2"/>
<path d="M338.703 518.354C338.207 518.35 337.729 518.184 337.346 517.882C336.963 517.581 336.699 517.163 336.598 516.698L306.526 374.553H254.154L224.082 516.698C224.042 516.978 223.943 517.247 223.79 517.489C223.638 517.731 223.436 517.94 223.195 518.104C222.955 518.267 222.683 518.382 222.395 518.441C222.107 518.499 221.809 518.5 221.521 518.444C221.232 518.388 220.959 518.275 220.717 518.114C220.476 517.952 220.271 517.744 220.117 517.504C219.962 517.263 219.861 516.995 219.819 516.715C219.776 516.435 219.795 516.15 219.872 515.877L250.308 372.077C250.406 371.61 250.669 371.191 251.053 370.889C251.436 370.587 251.917 370.422 252.413 370.421H308.283C308.777 370.422 309.255 370.588 309.636 370.89C310.017 371.192 310.277 371.612 310.372 372.077L340.808 515.877C340.92 516.413 340.806 516.97 340.492 517.425C340.177 517.881 339.688 518.198 339.13 518.308L338.703 518.354Z" fill="#29ABE2"/>
<path d="M350.462 372.502H254.233C245.4 372.504 236.919 369.181 230.61 363.247C224.301 357.313 220.667 349.241 220.489 340.764L216.912 200.382C216.845 197.244 217.43 194.125 218.634 191.207C219.838 188.289 221.637 185.631 223.924 183.389C226.212 181.146 228.942 179.364 231.956 178.147C234.97 176.93 238.206 176.303 241.476 176.302H301.809C307.847 176.305 313.673 178.441 318.177 182.302C322.68 186.163 325.547 191.479 326.231 197.237L350.462 372.502Z" fill="#29ABE2"/>
<path d="M297.979 354.726H392.151C395.648 354.726 399.001 356.06 401.474 358.433C403.946 360.807 405.335 364.026 405.335 367.382V367.823C405.335 369.032 404.835 370.191 403.944 371.046C403.054 371.9 401.846 372.381 400.587 372.381H297.979V354.726Z" fill="#29ABE2"/>
<g opacity="0.3">
<path opacity="0.3" d="M422.761 518.354C422.265 518.353 421.785 518.187 421.401 517.886C421.017 517.584 420.754 517.164 420.656 516.698L390.584 374.553H338.212L308.14 516.698C307.997 517.204 307.658 517.639 307.193 517.915C306.727 518.19 306.17 518.285 305.634 518.181C305.099 518.077 304.624 517.78 304.308 517.353C303.991 516.925 303.856 516.397 303.93 515.877L334.35 372.077C334.451 371.612 334.715 371.194 335.098 370.892C335.481 370.591 335.96 370.425 336.455 370.421H392.325C392.821 370.422 393.301 370.587 393.685 370.889C394.068 371.191 394.332 371.61 394.43 372.077L424.866 515.877C424.978 516.413 424.864 516.97 424.55 517.425C424.235 517.881 423.746 518.198 423.188 518.308L422.761 518.354Z" fill="black"/>
<path opacity="0.3" d="M338.702 518.354C338.207 518.35 337.729 518.184 337.346 517.882C336.963 517.581 336.699 517.163 336.597 516.698L306.526 374.553H254.153L224.082 516.698C224.042 516.978 223.943 517.247 223.79 517.489C223.638 517.731 223.435 517.94 223.195 518.104C222.955 518.267 222.683 518.382 222.395 518.44C222.107 518.499 221.809 518.5 221.521 518.444C221.232 518.388 220.959 518.275 220.717 518.114C220.476 517.952 220.271 517.744 220.117 517.504C219.962 517.263 219.861 516.995 219.818 516.715C219.776 516.435 219.794 516.15 219.872 515.877L250.307 372.077C250.406 371.61 250.669 371.191 251.053 370.889C251.436 370.587 251.916 370.422 252.412 370.421H308.283C308.777 370.422 309.255 370.588 309.636 370.89C310.016 371.192 310.277 371.612 310.372 372.077L340.808 515.877C340.92 516.413 340.806 516.97 340.492 517.425C340.177 517.881 339.688 518.198 339.13 518.308L338.702 518.354Z" fill="black"/>
<path opacity="0.3" d="M350.462 372.502H254.233C245.4 372.504 236.919 369.181 230.61 363.247C224.301 357.313 220.667 349.241 220.489 340.764L216.912 200.382C216.845 197.244 217.43 194.125 218.634 191.207C219.838 188.289 221.637 185.631 223.924 183.389C226.212 181.146 228.942 179.364 231.956 178.147C234.97 176.93 238.206 176.303 241.476 176.302H301.809C307.847 176.305 313.673 178.441 318.177 182.302C322.68 186.163 325.547 191.479 326.231 197.237L350.462 372.502Z" fill="black"/>
<path opacity="0.3" d="M297.979 354.727H392.151C395.648 354.727 399.001 356.06 401.473 358.433C403.946 360.807 405.335 364.026 405.335 367.382V367.823C405.335 369.032 404.835 370.191 403.944 371.046C403.054 371.901 401.846 372.381 400.587 372.381H297.979V354.727Z" fill="black"/>
</g>
<path d="M387.672 233.275C387.83 233.959 388.099 235.022 388.353 235.918L389.112 238.775C389.65 240.689 390.236 242.603 390.853 244.518C392.024 248.377 393.322 252.22 394.683 256.064C396.045 259.908 397.437 263.661 398.957 267.55C399.701 269.449 400.445 271.363 401.236 273.262L402.154 275.541C402.337 275.931 402.577 276.294 402.866 276.62C405.119 278.807 407.864 280.471 410.89 281.482C414.587 282.91 418.398 284.048 422.286 284.885C426.306 285.781 430.437 286.526 434.616 287.149C438.794 287.772 443.083 288.273 447.198 288.668L447.341 296.842C438.312 297.738 429.21 297.738 420.181 296.842C415.462 296.375 410.796 295.505 406.237 294.244C403.768 293.528 401.365 292.619 399.052 291.524C396.388 290.282 393.951 288.635 391.835 286.647C390.606 285.473 389.542 284.15 388.669 282.712C388.432 282.348 388.226 281.938 388.004 281.558L387.593 280.737L386.865 279.218C385.883 277.289 384.902 275.359 384 273.399C382.164 269.479 380.376 265.529 378.777 261.503C377.178 257.477 375.612 253.421 374.282 249.349C373.633 247.252 373 245.171 372.414 243.029L371.544 239.823C371.291 238.668 371.053 237.711 370.8 236.344L387.672 233.275Z" fill="#E58A7B"/>
<path d="M382.291 216.016C389.081 217.672 393.813 244.472 393.813 244.472L375.121 256.626C375.121 256.626 357.189 229.583 362.459 222.427C367.856 215.074 372.383 213.646 382.291 216.016Z" fill="#29ABE2"/>
<path opacity="0.5" d="M382.291 216.016C389.081 217.672 393.813 244.472 393.813 244.472L375.121 256.626C375.121 256.626 357.189 229.583 362.459 222.427C367.856 215.074 372.383 213.646 382.291 216.016Z" fill="#F0F0F0"/>
<path opacity="0.2" d="M379.853 222.761L363.599 235.128C366.764 242.641 370.615 249.87 375.105 256.733L388.068 248.27L379.853 222.761Z" fill="#29ABE2"/>
<path d="M382.291 216.016C382.291 216.016 390.204 218.659 374.377 311.381H307.555C308.678 285.265 308.71 269.16 295.716 215.545C305.073 213.695 314.557 212.496 324.094 211.959C334.205 211.267 344.355 211.267 354.466 211.959C367.508 213.159 382.291 216.016 382.291 216.016Z" fill="#29ABE2"/>
<path opacity="0.5" d="M382.291 216.016C382.291 216.016 390.204 218.659 374.377 311.381H307.555C308.678 285.265 308.71 269.16 295.716 215.545C305.073 213.695 314.557 212.496 324.094 211.959C334.205 211.267 344.355 211.267 354.466 211.959C367.508 213.159 382.291 216.016 382.291 216.016Z" fill="#F0F0F0"/>
<path d="M444.745 288.592L456.41 277.228L457.992 293.241C457.992 293.241 449.24 298.923 443.194 295.869L444.745 288.592Z" fill="#E58A7B"/>
<path d="M470.179 275.541L470.702 289.002L457.976 293.241L456.441 277.228L470.179 275.541Z" fill="#E58A7B"/>
<path d="M450.221 503.617H466.681L469.214 467.017H452.754L450.221 503.617Z" fill="#E58A7B"/>
<path d="M386.517 503.617H402.977L408.263 467.017H391.803L386.517 503.617Z" fill="#E58A7B"/>
<path d="M404.006 501.778H385.504C385.185 501.772 384.875 501.878 384.633 502.077C384.39 502.276 384.233 502.554 384.19 502.857L382.085 516.911C382.048 517.266 382.088 517.624 382.204 517.963C382.319 518.302 382.508 518.614 382.757 518.879C383.006 519.144 383.31 519.356 383.65 519.501C383.989 519.646 384.357 519.721 384.728 519.721C391.17 519.615 394.225 519.25 402.407 519.25C407.409 519.25 420.245 519.752 427.161 519.752C434.078 519.752 434.442 513.188 431.561 512.596C418.662 509.922 411.096 506.26 406.744 502.751C405.981 502.125 405.01 501.78 404.006 501.778Z" fill="#333333"/>
<path d="M467.964 501.778H449.493C449.175 501.775 448.867 501.883 448.626 502.081C448.384 502.279 448.226 502.555 448.18 502.857L446.075 516.91C446.037 517.265 446.077 517.624 446.193 517.963C446.309 518.302 446.497 518.614 446.746 518.879C446.995 519.144 447.299 519.356 447.639 519.501C447.979 519.646 448.346 519.721 448.718 519.721C455.159 519.615 458.214 519.25 466.397 519.25C471.414 519.25 481.749 519.752 488.666 519.752C495.582 519.752 495.946 513.188 493.066 512.596C480.166 509.922 475.086 506.26 470.749 502.751C469.971 502.119 468.983 501.774 467.964 501.778Z" fill="#333333"/>
<path d="M369.17 147.222C375.089 147.587 378.096 176.089 360.734 174.433C343.371 172.777 369.17 147.222 369.17 147.222Z" fill="#333333"/>
<path d="M469.214 467.017L467.9 485.887H451.44L452.738 467.017H469.214Z" fill="#CF6F64"/>
<path d="M391.803 467.017H408.279L405.541 485.887H389.065L391.803 467.017Z" fill="#CF6F64"/>
<path opacity="0.2" d="M302.395 245.353C303.978 253.132 305.101 259.847 305.956 265.894L309.865 236.86L302.395 245.353Z" fill="#29ABE2"/>
<path d="M327.101 179.203C329.016 188.577 330.932 205.761 324.094 212.02C324.094 212.02 326.769 221.531 344.923 221.531C364.881 221.531 354.419 212.02 354.419 212.02C343.514 209.528 343.799 201.765 345.698 194.487L327.101 179.203Z" fill="#E58A7B"/>
<path d="M341.314 223.566L347.392 221.47L346.585 219.875L341.314 223.566Z" fill="#333333"/>
<path d="M353.106 222.351L347.392 221.47L348.626 219.692L353.106 222.351Z" fill="#333333"/>
<path d="M326.31 207.599L322.179 211.458C322.055 211.58 321.986 211.743 321.986 211.914C321.986 212.084 322.055 212.247 322.179 212.369L339.589 231.406C340.417 226.885 342.939 222.811 346.68 219.951C332.277 214.724 328.526 209.316 327.244 207.796C327.214 207.708 327.161 207.629 327.089 207.566C327.018 207.504 326.93 207.461 326.836 207.441C326.741 207.421 326.643 207.425 326.551 207.453C326.459 207.48 326.376 207.531 326.31 207.599Z" fill="#29ABE2"/>
<path d="M351.19 210.516L356.318 211.853C356.472 211.894 356.611 211.973 356.722 212.082C356.834 212.192 356.913 212.327 356.951 212.476C358.4 218.72 358.127 225.218 356.16 231.33C355.432 228.747 352.995 222.564 348.626 219.692C353.374 216.547 351.459 212.491 350.779 210.956C350.757 210.899 350.751 210.837 350.763 210.778C350.775 210.718 350.804 210.662 350.846 210.617C350.888 210.571 350.943 210.538 351.003 210.52C351.064 210.502 351.129 210.501 351.19 210.516Z" fill="#29ABE2"/>
<path d="M334.714 185.432L345.793 194.472C345.333 196.166 345.02 197.894 344.859 199.638C340.697 199.06 334.983 194.685 334.54 190.522C334.269 188.83 334.328 187.104 334.714 185.432Z" fill="#CF6F64"/>
<path d="M326.041 154.5C324.157 170.072 323.002 176.636 329.649 185.934C339.621 199.926 359.974 198.741 366.669 184.02C372.699 170.771 374.757 147.557 360.196 138.684C356.993 136.721 353.32 135.578 349.527 135.361C345.734 135.145 341.946 135.863 338.523 137.448C335.101 139.033 332.157 141.432 329.973 144.416C327.788 147.401 326.434 150.872 326.041 154.5Z" fill="#E58A7B"/>
<path d="M363.14 128.778C336.313 118.614 316.165 130.085 312.002 146.387C305.465 171.698 328.953 193 328.953 193L328.953 167.003C332.704 169.176 343.197 168.219 340.032 149.425C338.164 138.79 352.187 153.603 369.977 151.947C374.709 151.507 381.183 135.615 363.14 128.778Z" fill="#333333"/>
<path d="M372.272 135.038C368.743 129.826 361.526 125.36 346.569 123.248C346.569 123.248 354.34 124.934 356.856 130.389C359.373 135.843 376.53 141.312 372.272 135.038Z" fill="#333333"/>
<path d="M320.881 167.976C320.772 169.473 320.971 170.977 321.468 172.4C321.965 173.824 322.75 175.139 323.778 176.271C326.547 179.31 330.188 177.441 331.327 173.795C332.34 170.498 332.134 164.968 328.431 163.296C324.727 161.625 321.182 164.269 320.881 167.976Z" fill="#E58A7B"/>
<path d="M374.425 311.442C374.425 311.442 484.804 321.302 483.728 369.479C482.604 419.615 471.43 482.24 471.43 482.24H448.623C448.623 482.24 446.676 429.248 446.011 379.886C445.679 354.18 339.019 349.029 339.019 349.029L325.249 311.442H374.425Z" fill="#333333"/>
<path d="M356.761 311.442C356.761 311.442 428.095 334.155 429.899 362.262C433.207 414.009 409.514 482.286 409.514 482.286H387.055C387.055 482.286 388.337 437.011 391.012 390.126C394.399 331.208 286.109 389.305 307.555 311.488L356.761 311.442Z" fill="#333333"/>
<path d="M349.513 162.992C349.275 164.238 349.782 165.378 350.636 165.53C351.491 165.682 352.361 164.77 352.599 163.524C352.836 162.278 352.33 161.124 351.475 160.987C350.62 160.85 349.782 161.731 349.513 162.992Z" fill="#333333"/>
<path d="M364.279 165.53C364.042 166.775 364.548 167.915 365.403 168.067C366.258 168.219 367.144 167.307 367.382 166.061C367.619 164.816 367.113 163.661 366.258 163.524C365.403 163.387 364.517 164.269 364.279 165.53Z" fill="#333333"/>
<path d="M359.974 167.003C360.608 170.065 361.673 173.03 363.14 175.815C362.394 176.141 361.585 176.31 360.766 176.31C359.947 176.31 359.137 176.141 358.392 175.815L359.974 167.003Z" fill="#DF5753"/>
<path d="M352.947 179.872C351.21 179.607 349.563 178.954 348.138 177.964C346.714 176.974 345.553 175.676 344.749 174.174C344.722 174.116 344.72 174.05 344.744 173.99C344.767 173.93 344.815 173.882 344.875 173.855C344.938 173.834 345.007 173.837 345.069 173.862C345.13 173.887 345.18 173.934 345.208 173.992C345.968 175.411 347.065 176.639 348.409 177.578C349.753 178.517 351.307 179.141 352.947 179.401C353.013 179.415 353.07 179.453 353.109 179.507C353.147 179.56 353.163 179.625 353.153 179.689C353.141 179.736 353.115 179.778 353.079 179.81C353.042 179.843 352.996 179.864 352.947 179.872Z" fill="#333333"/>
<path d="M346.046 157.386C345.978 157.389 345.909 157.376 345.846 157.35C345.783 157.324 345.727 157.284 345.682 157.234C345.635 157.192 345.596 157.14 345.57 157.083C345.544 157.025 345.53 156.963 345.53 156.9C345.53 156.837 345.544 156.775 345.57 156.718C345.596 156.66 345.635 156.609 345.682 156.566C346.535 155.766 347.575 155.175 348.716 154.842C349.856 154.509 351.063 154.443 352.235 154.652C352.359 154.687 352.464 154.767 352.528 154.874C352.593 154.981 352.613 155.108 352.583 155.229C352.568 155.29 352.541 155.348 352.502 155.399C352.464 155.45 352.415 155.493 352.359 155.526C352.303 155.558 352.241 155.58 352.176 155.589C352.111 155.598 352.045 155.594 351.982 155.578C350.97 155.407 349.931 155.471 348.951 155.764C347.97 156.057 347.078 156.572 346.347 157.265C346.262 157.334 346.157 157.377 346.046 157.386Z" fill="#333333"/>
<path d="M372.351 159.878C372.253 159.881 372.156 159.855 372.074 159.804C371.992 159.752 371.928 159.677 371.892 159.589C371.506 158.677 370.9 157.866 370.124 157.222C369.348 156.578 368.425 156.119 367.429 155.882C367.3 155.86 367.185 155.79 367.108 155.688C367.032 155.586 366.999 155.46 367.018 155.335C367.041 155.208 367.116 155.096 367.225 155.021C367.335 154.947 367.471 154.918 367.603 154.94C368.763 155.198 369.84 155.721 370.744 156.464C371.648 157.207 372.351 158.149 372.795 159.209C372.848 159.326 372.852 159.459 372.804 159.578C372.757 159.698 372.663 159.794 372.541 159.848L372.351 159.878Z" fill="#333333"/>
<path d="M305.703 238.471C304.262 243.029 302.711 247.586 301.334 252.266C299.957 256.945 298.501 261.503 297.251 266.137C296.001 270.771 294.814 275.359 293.927 279.811C293.5 282.059 293.104 284.292 292.883 286.389C292.756 287.437 292.693 288.425 292.677 289.337C292.677 289.549 292.677 289.336 292.519 288.987C292.325 288.575 292.057 288.2 291.727 287.878C290.92 287.209 290.619 287.331 290.983 287.437C291.646 287.592 292.328 287.659 293.009 287.635C295.14 287.565 297.259 287.305 299.34 286.86C304.054 285.863 308.701 284.59 313.252 283.047C322.606 280.008 332.103 276.301 341.346 272.518L345.429 279.674C336.66 285.192 327.494 290.107 318.001 294.381C313.085 296.606 308.013 298.5 302.822 300.047C299.932 300.892 296.964 301.467 293.959 301.764C292.082 301.949 290.189 301.903 288.324 301.628C287.087 301.45 285.879 301.118 284.732 300.64C283.248 300.024 281.904 299.137 280.775 298.027C278.58 295.806 277.322 292.883 277.245 289.823C277.166 288.303 277.15 286.784 277.245 285.417C277.356 282.606 277.625 279.947 277.989 277.349C278.749 272.153 279.73 267.14 280.933 262.156C282.136 257.173 283.418 252.357 284.827 247.526C286.235 242.694 287.755 237.954 289.575 233.123L305.703 238.471Z" fill="#E58A7B"/>
<path d="M409.64 504.437C408.182 504.403 406.732 504.209 405.319 503.86C405.266 503.85 405.218 503.825 405.18 503.789C405.142 503.752 405.116 503.706 405.106 503.655C405.095 503.604 405.101 503.552 405.122 503.504C405.144 503.457 405.179 503.417 405.224 503.389C405.778 503.039 410.716 499.97 412.6 500.776C412.797 500.861 412.967 500.997 413.089 501.168C413.212 501.34 413.284 501.54 413.296 501.748C413.375 502.085 413.361 502.436 413.255 502.766C413.15 503.097 412.957 503.395 412.695 503.632C411.807 504.237 410.725 504.522 409.64 504.437ZM406.079 503.495C409.134 504.103 411.429 504.027 412.315 503.237C412.508 503.057 412.65 502.833 412.727 502.585C412.805 502.338 412.815 502.076 412.758 501.824C412.752 501.704 412.712 501.589 412.642 501.49C412.572 501.39 412.476 501.312 412.362 501.262C411.16 500.745 407.82 502.462 406.079 503.495Z" fill="#29ABE2"/>
<path d="M405.383 503.875H405.24C405.196 503.851 405.159 503.815 405.134 503.772C405.109 503.729 405.097 503.681 405.098 503.632C405.098 503.45 405.098 498.953 406.871 497.464C407.078 497.273 407.329 497.13 407.604 497.049C407.879 496.967 408.17 496.948 408.453 496.993C408.739 496.99 409.016 497.083 409.238 497.255C409.46 497.426 409.613 497.667 409.672 497.935C410.004 499.575 407.25 502.933 405.525 503.875H405.383ZM408.168 497.464C407.82 497.466 407.486 497.596 407.235 497.828C405.984 498.892 405.731 501.9 405.652 503.1C407.235 502.006 409.355 499.241 409.086 498.011C409.086 497.813 408.928 497.555 408.358 497.479L408.168 497.464Z" fill="#29ABE2"/>
<path d="M474.152 504.437C472.413 504.4 470.68 504.212 468.977 503.875C468.921 503.861 468.87 503.833 468.831 503.792C468.792 503.752 468.765 503.702 468.755 503.647C468.747 503.591 468.757 503.534 468.786 503.485C468.815 503.435 468.859 503.396 468.913 503.374C469.641 503.009 476.146 499.819 478.125 500.852C478.296 500.943 478.442 501.074 478.547 501.234C478.652 501.393 478.713 501.575 478.726 501.763C478.771 502.08 478.733 502.402 478.617 502.701C478.501 503.001 478.31 503.268 478.061 503.48C476.91 504.218 475.531 504.556 474.152 504.437ZM469.895 503.495C472.015 503.845 476.225 504.346 477.681 503.1C477.863 502.937 478.002 502.735 478.088 502.511C478.173 502.286 478.202 502.046 478.172 501.809C478.171 501.706 478.141 501.605 478.085 501.517C478.029 501.429 477.95 501.356 477.856 501.307C476.558 500.639 472.189 502.417 469.895 503.495Z" fill="#29ABE2"/>
<path d="M469.04 503.875C468.988 503.89 468.933 503.89 468.882 503.875C468.843 503.846 468.812 503.809 468.79 503.767C468.768 503.725 468.756 503.679 468.755 503.632C468.755 503.45 469.151 499.241 471.177 497.555C471.46 497.323 471.791 497.149 472.148 497.044C472.504 496.94 472.879 496.907 473.25 496.947C474.263 497.038 474.548 497.524 474.627 497.904C474.912 499.651 471.082 502.994 469.151 503.83L469.04 503.875ZM472.949 497.464C472.429 497.462 471.927 497.646 471.541 497.98C470.053 499.165 469.531 502.006 469.372 503.146C471.446 502.037 474.279 499.18 474.12 498.011C474.12 497.889 474.121 497.555 473.25 497.479L472.949 497.464Z" fill="#29ABE2"/>
<path d="M340.966 272.761L356.572 268.963L349.133 283.35C349.133 283.35 338.576 283.791 335.094 278.139L340.966 272.761Z" fill="#E58A7B"/>
<path d="M369.186 274.417L362.285 286.146L349.133 283.35L356.572 268.963L369.186 274.417Z" fill="#E58A7B"/>
<path d="M306.558 307.674L306.019 313.417C305.798 313.873 306.336 314.329 307.111 314.329H374.757C375.359 314.329 375.849 314.04 375.897 313.675L376.498 307.932C376.498 307.537 376.007 307.203 375.359 307.203H307.65C307.441 307.186 307.231 307.221 307.04 307.303C306.849 307.386 306.683 307.513 306.558 307.674Z" fill="#29ABE2"/>
<path d="M315.658 314.952H313.838C313.474 314.952 313.205 314.769 313.221 314.557L314.075 307.082C314.075 306.869 314.424 306.687 314.788 306.687H316.544C316.908 306.687 317.178 306.869 317.162 307.082L316.307 314.557C316.323 314.769 316.006 314.952 315.658 314.952Z" fill="#333333"/>
<path d="M369.661 314.952H367.841C367.477 314.952 367.208 314.769 367.223 314.557L368.078 307.082C368.078 306.869 368.426 306.687 368.79 306.687H370.595C370.959 306.687 371.228 306.869 371.212 307.082L370.357 314.557C370.357 314.769 370.009 314.952 369.661 314.952Z" fill="#333333"/>
<path d="M342.659 314.952H340.839C340.475 314.952 340.206 314.769 340.222 314.557L341.077 307.082C341.077 306.869 341.425 306.687 341.789 306.687H343.593C343.957 306.687 344.226 306.869 344.21 307.082L343.356 314.557C343.324 314.769 343.023 314.952 342.659 314.952Z" fill="#333333"/>
<path d="M295.716 215.605C289.005 217.565 280.965 239.701 280.965 239.701L302.569 259.953C302.569 259.953 316.434 239.063 313.648 230.753C310.688 222.093 303.36 213.387 295.716 215.605Z" fill="#29ABE2"/>
<path opacity="0.5" d="M295.716 215.605C289.005 217.565 280.965 239.701 280.965 239.701L302.569 259.953C302.569 259.953 316.434 239.063 313.648 230.753C310.688 222.093 303.36 213.387 295.716 215.605Z" fill="#F0F0F0"/>
<path d="M654.709 295.657H528.787V530.766H654.709V295.657Z" fill="#29ABE2"/>
<path opacity="0.6" d="M654.709 295.657H528.787V530.766H654.709V295.657Z" fill="#F0F0F0"/>
<path d="M410.764 295.657H284.842V530.766H410.764V295.657Z" fill="#29ABE2"/>
<path opacity="0.6" d="M410.764 295.657H284.842V530.766H410.764V295.657Z" fill="#F0F0F0"/>
<path d="M659.426 295.657H649.043V530.766H659.426V295.657Z" fill="#29ABE2"/>
<path opacity="0.3" d="M659.426 295.657H649.043V530.766H659.426V295.657Z" fill="black"/>
<path d="M412.268 313.296L662.638 313.296V295.657H412.268V313.296Z" fill="#29ABE2"/>
<path opacity="0.3" d="M412.268 313.296L662.638 313.296V295.657H412.268V313.296Z" fill="black"/>
<path d="M415.496 295.657H405.114V530.766H415.496V295.657Z" fill="#29ABE2"/>
<path opacity="0.3" d="M415.496 295.657H405.114V530.766H415.496V295.657Z" fill="black"/>
<path d="M411.666 351.901L654.234 351.901V301.111H411.666V351.901Z" fill="#29ABE2"/>
<path opacity="0.3" d="M411.666 351.901L654.234 351.901V301.111H411.666V351.901Z" fill="black"/>
<path d="M654.772 537.603H584.863C580.117 537.599 575.567 535.787 572.21 532.566C568.854 529.344 566.967 524.976 566.963 520.42V308.692C566.963 304.663 565.295 300.798 562.327 297.949C559.359 295.1 555.333 293.499 551.136 293.499H530.212V291.98H551.12C555.737 291.98 560.165 293.741 563.43 296.875C566.695 300.009 568.53 304.26 568.53 308.692V520.42C568.534 524.573 570.254 528.555 573.314 531.492C576.373 534.428 580.521 536.08 584.848 536.084H654.772C655.962 536.086 657.123 535.727 658.088 535.059C659.053 534.391 659.774 533.448 660.148 532.363C660.521 531.279 660.529 530.109 660.169 529.02C659.809 527.931 659.1 526.979 658.144 526.3L659.077 525.084C660.299 525.954 661.203 527.171 661.663 528.563C662.122 529.955 662.112 531.45 661.636 532.836C661.159 534.223 660.239 535.429 659.007 536.285C657.775 537.141 656.293 537.602 654.772 537.603Z" fill="#29ABE2"/>
<path opacity="0.3" d="M654.772 537.603H584.863C580.117 537.599 575.567 535.787 572.21 532.566C568.854 529.344 566.967 524.976 566.963 520.42V308.692C566.963 304.663 565.295 300.798 562.327 297.949C559.359 295.1 555.333 293.499 551.136 293.499H530.212V291.98H551.12C555.737 291.98 560.165 293.741 563.43 296.875C566.695 300.009 568.53 304.26 568.53 308.692V520.42C568.534 524.573 570.254 528.555 573.314 531.492C576.373 534.428 580.521 536.08 584.848 536.084H654.772C655.962 536.086 657.123 535.727 658.088 535.059C659.053 534.391 659.774 533.448 660.148 532.363C660.521 531.279 660.529 530.109 660.169 529.02C659.809 527.931 659.1 526.979 658.144 526.3L659.077 525.084C660.299 525.954 661.203 527.171 661.663 528.563C662.122 529.955 662.112 531.45 661.636 532.836C661.159 534.223 660.239 535.429 659.007 536.285C657.775 537.141 656.293 537.602 654.772 537.603Z" fill="black"/>
<path d="M664.965 365.027H663.382V394.395H664.965V365.027Z" fill="#29ABE2"/>
<path opacity="0.3" d="M664.965 365.027H663.382V394.395H664.965V365.027Z" fill="black"/>
<path d="M664.965 347.692H663.382V355.41H664.965V347.692Z" fill="#29ABE2"/>
<path opacity="0.3" d="M664.965 347.692H663.382V355.41H664.965V347.692Z" fill="black"/>
<path d="M549.047 225.465H431.704L414.705 291.98H532.032L549.047 225.465Z" fill="#1D789E"/>
<path opacity="0.4" d="M549.047 225.465H431.704L414.705 291.98H532.032L549.047 225.465Z" fill="#F0F0F0"/>
<path d="M418.298 291.98L417.823 295.657H371.782L372.257 291.98H418.298Z" fill="#1D789E"/>
<path opacity="0.4" d="M418.298 291.98L417.823 295.657H371.782L372.257 291.98H418.298Z" fill="#F0F0F0"/>
<path d="M535.641 291.98L535.166 295.657H417.823L418.298 291.98H535.641Z" fill="#1D789E"/>
<path opacity="0.5" d="M535.641 291.98L535.166 295.657H417.823L418.298 291.98H535.641Z" fill="black"/>
<path d="M552.655 225.465H435.312L418.314 291.98H535.641L552.655 225.465Z" fill="#1D789E"/>
<path opacity="0.5" d="M552.655 225.465H435.312L418.314 291.98H535.641L552.655 225.465Z" fill="black"/>
<path d="M597.968 278.899C597.968 278.899 580.7 250.321 604.6 227.577C604.6 227.577 610.852 231.497 610.757 236.693C610.662 241.889 604.062 243.287 605.47 247.662C606.879 252.038 613.131 256.368 609.031 259.999C604.932 263.63 609.696 266.851 609.411 271.287C609.126 275.723 597.968 278.899 597.968 278.899Z" fill="#29ABE2"/>
<path d="M599.282 281.512C599.282 281.512 606.277 249.166 576.079 234.84C576.079 234.84 571.426 240.446 573.246 245.475C575.066 250.503 581.761 249.698 581.856 254.302C581.951 258.905 577.456 264.861 582.537 267.064C587.617 269.267 584.119 273.779 585.876 277.911C587.633 282.044 599.282 281.512 599.282 281.512Z" fill="#29ABE2"/>
<path opacity="0.5" d="M599.282 281.512C599.282 281.512 606.277 249.166 576.079 234.84C576.079 234.84 571.426 240.446 573.246 245.475C575.066 250.503 581.761 249.698 581.856 254.302C581.951 258.905 577.456 264.861 582.537 267.064C587.617 269.267 584.119 273.779 585.876 277.911C587.633 282.044 599.282 281.512 599.282 281.512Z" fill="black"/>
<path d="M572.819 274.341C572.819 274.341 573.404 295.611 595.42 295.611C617.436 295.611 618.005 274.341 618.005 274.341H572.819Z" fill="#29ABE2"/>
<path opacity="0.5" d="M572.819 274.341C572.819 274.341 573.404 295.611 595.42 295.611C617.436 295.611 618.005 274.341 618.005 274.341H572.819Z" fill="black"/>
<path d="M454.479 134.977L435.676 111.656L416.873 134.977H425.72V165.165H445.631V134.977H454.479Z" fill="#29ABE2"/>
<path d="M509.636 162.4C509.636 151.118 514.305 140.297 522.616 132.32C530.927 124.342 542.199 119.86 553.953 119.86V130.936C549.651 130.934 545.391 131.745 541.416 133.324C537.441 134.903 533.83 137.218 530.787 140.137C527.745 143.056 525.331 146.522 523.684 150.337C522.038 154.152 521.19 158.24 521.19 162.37L509.636 162.4Z" fill="#29ABE2"/>
<path d="M509.636 162.4H521.19C521.19 170.741 524.642 178.74 530.786 184.638C536.93 190.536 545.263 193.849 553.953 193.849C559.701 193.859 565.35 192.401 570.318 189.625L576.111 199.303C569.374 203.037 561.731 205.003 553.952 205.003C546.173 205.002 538.531 203.037 531.794 199.303C525.057 195.569 519.462 190.198 515.573 183.731C511.683 177.264 509.636 169.928 509.636 162.461V162.4Z" fill="#29ABE2"/>
<path opacity="0.5" d="M509.636 162.4H521.19C521.19 170.741 524.642 178.74 530.786 184.638C536.93 190.536 545.263 193.849 553.953 193.849C559.701 193.859 565.35 192.401 570.318 189.625L576.111 199.303C569.374 203.037 561.731 205.003 553.952 205.003C546.173 205.002 538.531 203.037 531.794 199.303C525.057 195.569 519.462 190.198 515.573 183.731C511.683 177.264 509.636 169.928 509.636 162.461V162.4Z" fill="#F0F0F0"/>
<path d="M553.952 130.936V119.83C563.739 119.794 573.263 122.869 581.038 128.574C588.813 134.28 594.401 142.296 596.932 151.371C599.462 160.446 598.791 170.07 595.025 178.741C591.258 187.412 584.608 194.642 576.111 199.303L570.334 189.686C576.626 186.247 581.554 180.903 584.346 174.49C587.138 168.077 587.637 160.956 585.765 154.242C583.893 147.527 579.755 141.598 573.999 137.381C568.243 133.164 561.193 130.897 553.952 130.936Z" fill="#29ABE2"/>
<path opacity="0.7" d="M553.952 130.936V119.83C563.739 119.794 573.263 122.869 581.038 128.574C588.813 134.28 594.401 142.296 596.932 151.371C599.462 160.446 598.791 170.07 595.025 178.741C591.258 187.412 584.608 194.642 576.111 199.303L570.334 189.686C576.626 186.247 581.554 180.903 584.346 174.49C587.138 168.077 587.637 160.956 585.765 154.242C583.893 147.527 579.755 141.598 573.999 137.381C568.243 133.164 561.193 130.897 553.952 130.936Z" fill="black"/>
<path d="M512.343 58.0097H471.968C470.528 58.0097 469.147 58.5588 468.129 59.536C467.111 60.5133 466.539 61.8388 466.539 63.2209V134.886C466.551 136.26 467.129 137.574 468.146 138.541C469.162 139.509 470.536 140.051 471.968 140.051H523.644C525.081 140.047 526.457 139.496 527.472 138.52C528.487 137.543 529.056 136.22 529.056 134.84V74.0686L512.343 58.0097Z" fill="#333333"/>
<path d="M509.969 132.926H476.399C475.769 132.926 475.166 132.686 474.72 132.258C474.275 131.831 474.025 131.251 474.025 130.647C474.029 130.045 474.281 129.469 474.726 129.045C475.171 128.621 475.772 128.383 476.399 128.383H509.985C510.611 128.383 511.213 128.621 511.658 129.045C512.102 129.469 512.354 130.045 512.359 130.647C512.354 131.253 512.101 131.832 511.653 132.259C511.205 132.686 510.6 132.926 509.969 132.926Z" fill="#29ABE2"/>
<path d="M494.141 69.7538H476.399C475.772 69.7538 475.171 69.5158 474.726 69.0917C474.281 68.6676 474.029 68.0918 474.025 67.4901C474.025 66.8857 474.275 66.306 474.72 65.8786C475.166 65.4512 475.769 65.2112 476.399 65.2112H494.157C494.787 65.2112 495.391 65.4512 495.836 65.8786C496.281 66.306 496.531 66.8857 496.531 67.4901C496.529 67.7894 496.466 68.0853 496.345 68.361C496.223 68.6368 496.047 68.8869 495.825 69.0971C495.603 69.3073 495.34 69.4735 495.051 69.5862C494.762 69.6988 494.453 69.7558 494.141 69.7538Z" fill="#29ABE2"/>
<path d="M505.743 78.7783H476.399C475.772 78.7783 475.171 78.5403 474.726 78.1162C474.281 77.6921 474.029 77.1164 474.025 76.5146C474.025 75.9102 474.275 75.3305 474.72 74.9032C475.166 74.4758 475.769 74.2357 476.399 74.2357H505.759C506.386 74.2397 506.985 74.4816 507.427 74.9085C507.869 75.3354 508.117 75.9128 508.117 76.5146C508.117 76.8132 508.055 77.1088 507.936 77.3844C507.816 77.6601 507.641 77.9103 507.421 78.1207C507.2 78.3311 506.938 78.4975 506.65 78.6104C506.362 78.7233 506.054 78.7803 505.743 78.7783Z" fill="#29ABE2"/>
<path d="M519.228 87.8029H476.399C475.772 87.8029 475.171 87.5649 474.726 87.1408C474.281 86.7167 474.029 86.1409 474.025 85.5391C474.025 84.9347 474.275 84.3551 474.72 83.9277C475.166 83.5003 475.769 83.2602 476.399 83.2602H519.243C519.873 83.2602 520.477 83.5003 520.922 83.9277C521.367 84.3551 521.617 84.9347 521.617 85.5391C521.615 85.8384 521.552 86.1343 521.431 86.4101C521.309 86.6858 521.133 86.9359 520.911 87.1461C520.689 87.3563 520.426 87.5225 520.137 87.6352C519.848 87.7479 519.539 87.8049 519.228 87.8029Z" fill="#29ABE2"/>
<path d="M519.228 96.8276H494.316C493.689 96.8276 493.087 96.5896 492.643 96.1655C492.198 95.7414 491.946 95.1656 491.942 94.5639C491.942 93.9594 492.192 93.3798 492.637 92.9524C493.082 92.525 493.686 92.2849 494.316 92.2849H519.228C519.857 92.2849 520.461 92.525 520.906 92.9524C521.352 93.3798 521.602 93.9594 521.602 94.5639C521.597 95.1656 521.345 95.7414 520.901 96.1655C520.456 96.5896 519.854 96.8276 519.228 96.8276Z" fill="#29ABE2"/>
<path d="M482.888 96.8276H476.399C475.772 96.8276 475.171 96.5896 474.726 96.1655C474.281 95.7414 474.029 95.1656 474.025 94.5638C474.025 93.9594 474.275 93.3798 474.72 92.9524C475.166 92.525 475.769 92.2849 476.399 92.2849H482.904C483.534 92.2849 484.138 92.525 484.583 92.9524C485.028 93.3798 485.278 93.9594 485.278 94.5638C485.276 94.8631 485.213 95.1591 485.091 95.4348C484.97 95.7105 484.794 95.9607 484.572 96.1709C484.35 96.3811 484.087 96.5473 483.798 96.6599C483.509 96.7726 483.2 96.8296 482.888 96.8276Z" fill="#29ABE2"/>
<path d="M519.228 105.852H476.399C475.769 105.852 475.166 105.612 474.72 105.185C474.275 104.757 474.025 104.178 474.025 103.573C474.029 102.971 474.281 102.396 474.726 101.972C475.171 101.547 475.772 101.309 476.399 101.309H519.243C519.87 101.309 520.472 101.547 520.917 101.972C521.361 102.396 521.613 102.971 521.617 103.573C521.618 103.874 521.556 104.171 521.435 104.449C521.315 104.726 521.139 104.978 520.917 105.19C520.694 105.402 520.431 105.569 520.141 105.683C519.851 105.797 519.541 105.854 519.228 105.852Z" fill="#29ABE2"/>
<path d="M502.688 114.877H476.399C475.769 114.877 475.166 114.637 474.72 114.209C474.275 113.782 474.025 113.202 474.025 112.598C474.029 111.996 474.281 111.42 474.726 110.996C475.171 110.572 475.772 110.334 476.399 110.334H502.704C503.331 110.334 503.932 110.572 504.377 110.996C504.822 111.42 505.074 111.996 505.078 112.598C505.078 112.898 505.016 113.196 504.896 113.473C504.776 113.751 504.599 114.003 504.377 114.215C504.155 114.426 503.891 114.594 503.602 114.708C503.312 114.821 503.001 114.879 502.688 114.877Z" fill="#29ABE2"/>
<path d="M519.228 114.877H512.2C511.574 114.873 510.974 114.631 510.532 114.204C510.09 113.777 509.842 113.199 509.842 112.598C509.842 111.997 510.091 111.422 510.533 110.997C510.975 110.572 511.575 110.334 512.2 110.334H519.228C519.855 110.334 520.456 110.572 520.901 110.996C521.346 111.42 521.598 111.996 521.602 112.598C521.602 113.202 521.352 113.782 520.906 114.209C520.461 114.637 519.857 114.877 519.228 114.877Z" fill="#29ABE2"/>
<path d="M519.228 123.901H476.399C475.769 123.901 475.166 123.661 474.72 123.234C474.275 122.806 474.025 122.227 474.025 121.622C474.029 121.02 474.281 120.445 474.726 120.021C475.171 119.596 475.772 119.358 476.399 119.358H519.243C519.87 119.358 520.472 119.596 520.917 120.021C521.361 120.445 521.613 121.02 521.617 121.622C521.618 121.923 521.556 122.22 521.435 122.498C521.315 122.775 521.139 123.027 520.917 123.239C520.694 123.451 520.431 123.618 520.141 123.732C519.851 123.846 519.541 123.903 519.228 123.901Z" fill="#29ABE2"/>
<g opacity="0.5">
<path opacity="0.5" d="M509.969 132.926H476.399C475.769 132.926 475.166 132.686 474.72 132.258C474.275 131.831 474.025 131.251 474.025 130.647C474.029 130.045 474.281 129.469 474.726 129.045C475.171 128.621 475.772 128.383 476.399 128.383H509.985C510.611 128.383 511.213 128.621 511.658 129.045C512.102 129.469 512.354 130.045 512.359 130.647C512.354 131.253 512.101 131.832 511.653 132.259C511.205 132.686 510.6 132.926 509.969 132.926Z" fill="#F0F0F0"/>
</g>
<g opacity="0.5">
<path opacity="0.5" d="M494.141 69.7538H476.399C475.772 69.7538 475.171 69.5158 474.726 69.0917C474.281 68.6676 474.029 68.0918 474.025 67.4901C474.025 66.8857 474.275 66.306 474.72 65.8786C475.166 65.4512 475.769 65.2112 476.399 65.2112H494.157C494.787 65.2112 495.391 65.4512 495.836 65.8786C496.281 66.306 496.531 66.8857 496.531 67.4901C496.529 67.7894 496.466 68.0853 496.345 68.361C496.223 68.6368 496.047 68.8869 495.825 69.0971C495.603 69.3073 495.34 69.4735 495.051 69.5862C494.762 69.6988 494.453 69.7558 494.141 69.7538Z" fill="#F0F0F0"/>
</g>
<g opacity="0.5">
<path opacity="0.5" d="M505.743 78.7783H476.399C475.772 78.7783 475.171 78.5403 474.726 78.1162C474.281 77.6921 474.029 77.1164 474.025 76.5146C474.025 75.9102 474.275 75.3305 474.72 74.9032C475.166 74.4758 475.769 74.2357 476.399 74.2357H505.759C506.386 74.2397 506.985 74.4816 507.427 74.9085C507.869 75.3354 508.117 75.9128 508.117 76.5146C508.117 76.8132 508.055 77.1088 507.936 77.3844C507.816 77.6601 507.641 77.9103 507.421 78.1207C507.2 78.3311 506.938 78.4975 506.65 78.6104C506.362 78.7233 506.054 78.7803 505.743 78.7783Z" fill="#F0F0F0"/>
</g>
<g opacity="0.5">
<path opacity="0.5" d="M519.228 87.8029H476.399C475.772 87.8029 475.171 87.5649 474.726 87.1408C474.281 86.7167 474.029 86.1409 474.025 85.5391C474.025 84.9347 474.275 84.3551 474.72 83.9277C475.166 83.5003 475.769 83.2602 476.399 83.2602H519.243C519.873 83.2602 520.477 83.5003 520.922 83.9277C521.367 84.3551 521.617 84.9347 521.617 85.5391C521.615 85.8384 521.552 86.1343 521.431 86.4101C521.309 86.6858 521.133 86.9359 520.911 87.1461C520.689 87.3563 520.426 87.5225 520.137 87.6352C519.848 87.7479 519.539 87.8049 519.228 87.8029Z" fill="#F0F0F0"/>
</g>
<g opacity="0.5">
<path opacity="0.5" d="M519.228 96.8276H494.316C493.689 96.8276 493.087 96.5896 492.643 96.1655C492.198 95.7414 491.946 95.1656 491.942 94.5639C491.942 93.9594 492.192 93.3798 492.637 92.9524C493.082 92.525 493.686 92.2849 494.316 92.2849H519.228C519.857 92.2849 520.461 92.525 520.906 92.9524C521.352 93.3798 521.602 93.9594 521.602 94.5639C521.597 95.1656 521.345 95.7414 520.901 96.1655C520.456 96.5896 519.854 96.8276 519.228 96.8276Z" fill="#F0F0F0"/>
</g>
<g opacity="0.5">
<path opacity="0.5" d="M482.888 96.8276H476.399C475.772 96.8276 475.171 96.5896 474.726 96.1655C474.281 95.7414 474.029 95.1656 474.025 94.5638C474.025 93.9594 474.275 93.3798 474.72 92.9524C475.166 92.525 475.769 92.2849 476.399 92.2849H482.904C483.534 92.2849 484.138 92.525 484.583 92.9524C485.028 93.3798 485.278 93.9594 485.278 94.5638C485.276 94.8631 485.213 95.1591 485.091 95.4348C484.97 95.7105 484.794 95.9607 484.572 96.1709C484.35 96.3811 484.087 96.5473 483.798 96.6599C483.509 96.7726 483.2 96.8296 482.888 96.8276Z" fill="#F0F0F0"/>
</g>
<g opacity="0.5">
<path opacity="0.5" d="M519.228 105.852H476.399C475.769 105.852 475.166 105.612 474.72 105.185C474.275 104.757 474.025 104.178 474.025 103.573C474.029 102.971 474.281 102.396 474.726 101.972C475.171 101.547 475.772 101.309 476.399 101.309H519.243C519.87 101.309 520.472 101.547 520.917 101.972C521.361 102.396 521.613 102.971 521.617 103.573C521.618 103.874 521.556 104.171 521.435 104.449C521.315 104.726 521.139 104.978 520.917 105.19C520.694 105.402 520.431 105.569 520.141 105.683C519.851 105.797 519.541 105.854 519.228 105.852Z" fill="#F0F0F0"/>
</g>
<g opacity="0.5">
<path opacity="0.5" d="M502.688 114.877H476.399C475.769 114.877 475.166 114.637 474.72 114.209C474.275 113.782 474.025 113.202 474.025 112.598C474.029 111.996 474.281 111.42 474.726 110.996C475.171 110.572 475.772 110.334 476.399 110.334H502.704C503.331 110.334 503.932 110.572 504.377 110.996C504.822 111.42 505.074 111.996 505.078 112.598C505.078 112.898 505.016 113.196 504.896 113.473C504.776 113.751 504.599 114.003 504.377 114.215C504.155 114.426 503.891 114.594 503.602 114.708C503.312 114.821 503.001 114.879 502.688 114.877Z" fill="#F0F0F0"/>
</g>
<g opacity="0.5">
<path opacity="0.5" d="M519.228 114.877H512.2C511.574 114.873 510.974 114.631 510.532 114.204C510.09 113.777 509.842 113.199 509.842 112.598C509.842 111.997 510.091 111.422 510.533 110.997C510.975 110.572 511.575 110.334 512.2 110.334H519.228C519.855 110.334 520.456 110.572 520.901 110.996C521.346 111.42 521.598 111.996 521.602 112.598C521.602 113.202 521.352 113.782 520.906 114.209C520.461 114.637 519.857 114.877 519.228 114.877Z" fill="#F0F0F0"/>
</g>
<g opacity="0.5">
<path opacity="0.5" d="M519.228 123.901H476.399C475.769 123.901 475.166 123.661 474.72 123.234C474.275 122.806 474.025 122.227 474.025 121.622C474.029 121.02 474.281 120.445 474.726 120.021C475.171 119.596 475.772 119.358 476.399 119.358H519.243C519.87 119.358 520.472 119.596 520.917 120.021C521.361 120.445 521.613 121.02 521.617 121.622C521.618 121.923 521.556 122.22 521.435 122.498C521.315 122.775 521.139 123.027 520.917 123.239C520.694 123.451 520.431 123.618 520.141 123.732C519.851 123.846 519.541 123.903 519.228 123.901Z" fill="#F0F0F0"/>
</g>
<path d="M512.343 58.0097V68.8574C512.341 69.5423 512.48 70.2209 512.752 70.854C513.024 71.4872 513.424 72.0624 513.928 72.5467C514.433 73.031 515.032 73.4148 515.692 73.676C516.351 73.9372 517.058 74.0706 517.772 74.0686H529.057L512.343 58.0097Z" fill="#29ABE2"/>
<path opacity="0.5" d="M512.343 58.0097V68.8574C512.341 69.5423 512.48 70.2209 512.752 70.854C513.024 71.4872 513.424 72.0624 513.928 72.5467C514.433 73.031 515.032 73.4148 515.692 73.676C516.351 73.9372 517.058 74.0706 517.772 74.0686H529.057L512.343 58.0097Z" fill="#F0F0F0"/>
</svg>
