<?xml version="1.0" encoding="utf-8"?>
<!-- Generator: Adobe Illustrator 24.0.2, SVG Export Plug-In . SVG Version: 6.00 Build 0)  -->
<svg version="1.1" id="af69a178-fb54-474a-84f8-2cd6cf9a880b"
	 xmlns="http://www.w3.org/2000/svg" xmlns:xlink="http://www.w3.org/1999/xlink" x="0px" y="0px" viewBox="0 0 266.6 307.9"
	 style="enable-background:new 0 0 266.6 307.9;" xml:space="preserve">
<style type="text/css">
	.st0{clip-path:url(#SVGID_2_);}
	.st1{fill:#36A9E1;}
	.st2{fill:#1D71B8;}
	.st3{fill:#009FE3;}
	.st4{fill:#247DB8;}
	.st5{fill:#2D84B5;}
	.st6{fill:#368CB3;}
	.st7{fill:#3F91AF;}
</style>
<title>diseño</title>
<g>
	<defs>
		<polygon id="SVGID_1_" points="0,77 0,230.9 133.3,307.9 266.6,230.9 266.6,77 133.3,0 		"/>
	</defs>
	<clipPath id="SVGID_2_">
		<use xlink:href="#SVGID_1_"  style="overflow:visible;"/>
	</clipPath>
	<g class="st0">
		<polygon class="st1" points="133.3,0 133.3,153.9 266.6,230.9 399.9,153.9 399.9,0 266.6,-77 		"/>
		<polygon class="st2" points="0,230.9 0,384.9 133.3,461.8 266.6,384.9 266.6,230.9 133.3,154 		"/>
		<polygon class="st3" points="-133.3,0 -133.3,153.9 0,230.9 133.3,153.9 133.3,0 0,-77 		"/>
		<polygon class="st4" points="0,248.5 0,402.4 133.3,479.4 266.6,402.4 266.6,248.5 133.3,171.5 		"/>
		<polygon class="st5" points="0,272.9 0,426.8 133.3,503.8 266.6,426.8 266.6,272.9 133.3,195.9 		"/>
		<polygon class="st6" points="0,295.7 0,449.6 133.3,526.6 266.6,449.6 266.6,295.7 133.3,218.7 		"/>
		<polygon class="st7" points="0,317.8 0,471.7 198.9,625.3 266.6,471.7 266.6,317.8 133.3,240.8 		"/>
	</g>
</g>
</svg>
