<svg id="bcc47a54-362b-48e9-934e-1f2298aba12c" data-name="Capa 1" xmlns="http://www.w3.org/2000/svg" xmlns:xlink="http://www.w3.org/1999/xlink" viewBox="0 0 533.27 702.27"><defs><style>.ada61adc-afb8-4567-8781-cf429c026783{fill:none;}.b8ae07a4-445a-4d22-b7c1-7705e7ee4680{clip-path:url(#e5ab0226-f649-45d3-8b92-f13a9670408a);}.b0fb0678-7f69-4179-918c-b7866376ad0b{clip-path:url(#b57f895d-8997-4f4e-afe2-f1ad611aaa3d);}.e1f7db7d-4d14-4516-9ef1-89073033c6af{fill:#36a9e1;}.b30638a9-0738-47e0-b96f-47c61b06f997{fill:#1d71b8;}.b90d62d8-9fcc-4912-8687-8c773b14185f{fill:#009fe3;}.bb6733b0-ea68-48d4-b984-0d2f0662e401{fill:#247db8;}.b31fd68a-22e5-44a2-9475-c0935ce1e77a{fill:#2d84b5;}.af4875d9-3ca2-41e2-8f3d-53686ead353e{fill:#368cb3;}.b9b41f81-35b8-4aa7-ad67-ae4b4ece40f6{fill:#3f91af;}</style><clipPath id="e5ab0226-f649-45d3-8b92-f13a9670408a" transform="translate(133.32 76.99)"><circle class="ada61adc-afb8-4567-8781-cf429c026783" cx="133.32" cy="153.94" r="133.32"/></clipPath><clipPath id="b57f895d-8997-4f4e-afe2-f1ad611aaa3d" transform="translate(133.32 76.99)"><polygon class="ada61adc-afb8-4567-8781-cf429c026783" points="0 76.97 0 230.91 133.32 307.88 266.63 230.91 266.63 76.97 133.32 0 0 76.97"/></clipPath></defs><title>diseño 2</title><g class="b8ae07a4-445a-4d22-b7c1-7705e7ee4680"><g class="b0fb0678-7f69-4179-918c-b7866376ad0b"><polygon class="e1f7db7d-4d14-4516-9ef1-89073033c6af" points="266.63 76.97 266.63 230.91 399.95 307.88 533.26 230.91 533.26 76.97 399.95 0 266.63 76.97"/><polygon class="b30638a9-0738-47e0-b96f-47c61b06f997" points="133.32 307.9 133.32 461.84 266.63 538.81 399.95 461.84 399.95 307.9 266.63 230.93 133.32 307.9"/><polygon class="b90d62d8-9fcc-4912-8687-8c773b14185f" points="0 76.97 0 230.91 133.32 307.88 266.63 230.91 266.63 76.97 133.32 0 0 76.97"/><polygon class="bb6733b0-ea68-48d4-b984-0d2f0662e401" points="133.32 325.45 133.32 479.39 266.63 556.36 399.95 479.39 399.95 325.45 266.63 248.48 133.32 325.45"/><polygon class="b31fd68a-22e5-44a2-9475-c0935ce1e77a" points="133.32 349.86 133.32 503.8 266.63 580.77 399.95 503.8 399.95 349.86 266.63 272.88 133.32 349.86"/><polygon class="af4875d9-3ca2-41e2-8f3d-53686ead353e" points="133.32 372.63 133.32 526.58 266.63 603.55 399.95 526.58 399.95 372.63 266.63 295.67 133.32 372.63"/><polygon class="b9b41f81-35b8-4aa7-ad67-ae4b4ece40f6" points="133.32 394.76 133.32 548.71 332.25 702.27 399.95 548.71 399.95 394.76 266.63 317.8 133.32 394.76"/></g></g></svg>