<svg id="b540a1e0-e5d6-428b-b67f-1060eedd4ed3" data-name="af69a178-fb54-474a-84f8-2cd6cf9a880b" xmlns="http://www.w3.org/2000/svg" xmlns:xlink="http://www.w3.org/1999/xlink" viewBox="0 0 266.64 307.9"><defs><style>.b90b8062-07dc-46ec-8c16-89878c6ed38b{fill:none;}.e4c8607b-6988-4a1f-aeb0-75e263b3375a{clip-path:url(#fdc04c18-2503-455f-9f76-f19c92829a36);}.bd5f4ab6-d2f4-407b-9e06-7a178fc03ae4{fill:#36a9e1;}.bcbe697a-fe62-4d58-af4b-585076532309{fill:#1d71b8;}.bc01378d-6e23-4371-8eff-acd5136f415a{fill:#009fe3;}.aade7c4c-1723-4adf-8c49-49f1d5bd298a{fill:#247db8;}.b53cea39-8721-4bb8-b388-209058afc620{fill:#2d84b5;}.f6a01757-e6df-486b-a782-f240d9daf4c2{fill:#368cb3;}.f86fbff5-93c9-48bf-ba5b-2564c2e34a75{fill:#3f91af;}</style><clipPath id="fdc04c18-2503-455f-9f76-f19c92829a36"><polygon class="b90b8062-07dc-46ec-8c16-89878c6ed38b" points="0 76.99 0 230.93 133.32 307.9 266.63 230.93 266.63 76.99 133.32 0.02 0 76.99"/></clipPath></defs><title>diseño</title><g class="e4c8607b-6988-4a1f-aeb0-75e263b3375a"><polygon class="bd5f4ab6-d2f4-407b-9e06-7a178fc03ae4" points="133.31 0 133.31 153.94 266.63 230.91 399.94 153.94 399.94 0 266.63 -76.97 133.31 0"/><polygon class="bcbe697a-fe62-4d58-af4b-585076532309" points="0 230.93 0 384.87 133.31 461.84 266.63 384.87 266.63 230.93 133.31 153.96 0 230.93"/><polygon class="bc01378d-6e23-4371-8eff-acd5136f415a" points="-133.32 0 -133.32 153.94 0 230.91 133.31 153.94 133.31 0 0 -76.97 -133.32 0"/><polygon class="aade7c4c-1723-4adf-8c49-49f1d5bd298a" points="0 248.48 0 402.42 133.31 479.39 266.63 402.42 266.63 248.48 133.31 171.51 0 248.48"/><polygon class="b53cea39-8721-4bb8-b388-209058afc620" points="0 272.89 0 426.83 133.31 503.8 266.63 426.83 266.63 272.89 133.31 195.91 0 272.89"/><polygon class="f6a01757-e6df-486b-a782-f240d9daf4c2" points="0 295.66 0 449.61 133.31 526.58 266.63 449.61 266.63 295.66 133.31 218.7 0 295.66"/><polygon class="f86fbff5-93c9-48bf-ba5b-2564c2e34a75" points="0 317.79 0 471.74 198.93 625.3 266.63 471.74 266.63 317.79 133.31 240.83 0 317.79"/></g></svg>