<svg xmlns="http://www.w3.org/2000/svg" viewBox="0 0 622.23999 292.78405">
  <title>HTML5 and CSS3</title>
  <g>
    <g>
      <polygon points="593.921 249.291 459.74 292.784 325.564 249.291 297.24 0 622.24 0 593.921 249.291" fill="#1d71b8"/>
      <g>
        <polygon points="459.74 25.007 459.74 267.777 348.48 231.718 325 25.007 459.74 25.007" fill="#1d71b8"/>
        <polygon points="594.48 25.007 571 231.718 459.74 267.777 459.74 25.007 594.48 25.007" fill="#3282b8"/>
      </g>
      <rect x="448.86844" y="-8.73767" width="21.74311" height="141.73228" transform="translate(521.86846 -397.61152) rotate(90)" fill="#fff"/>
      <rect x="448.86844" y="61.86112" width="21.74311" height="141.73228" transform="translate(592.46725 -327.01273) rotate(90)" fill="#fff"/>
      <polygon points="405.014 139.728 388.875 121.856 514.467 55.128 530.606 73 405.014 139.728" fill="#fff"/>
      <rect x="502.25968" y="121.8557" width="28.34646" height="107.5709" transform="translate(1032.86581 351.2823) rotate(180)" fill="#fff"/>
      <polygon points="519.728 209.685 530.606 229.435 459.743 252.399 448.865 232.648 519.728 209.685" fill="#fff"/>
      <polygon points="399.779 209.68 388.901 229.43 459.764 252.394 470.642 232.644 399.779 209.68" fill="#fff"/>
      <rect x="388.90089" y="186.3481" width="27.95194" height="43.08217" fill="#fff"/>
    </g>
    <g>
      <polygon points="296.681 249.291 162.5 292.784 28.324 249.291 0 0 325 0 296.681 249.291" fill="#e94e1b"/>
      <g>
        <polygon points="162.5 25.007 162.5 267.777 51.24 231.718 27.76 25.007 162.5 25.007" fill="#e94e1b"/>
        <polygon points="297.24 25.007 273.76 231.718 162.5 267.777 162.5 25.007 297.24 25.007" fill="#ea5b33"/>
      </g>
      <rect x="151.62845" y="-8.73767" width="21.74311" height="141.73228" transform="translate(224.62847 -100.37153) rotate(90)" fill="#fff"/>
      <rect x="151.62845" y="61.86112" width="21.74311" height="141.73228" transform="translate(295.22726 -29.77274) rotate(90)" fill="#fff"/>
      <rect x="91.63386" y="51.25691" width="28.34646" height="92.3419" fill="#fff"/>
      <rect x="205.01969" y="121.8557" width="28.34646" height="107.5709" transform="translate(438.38583 351.2823) rotate(180)" fill="#fff"/>
      <polygon points="222.488 209.685 233.366 229.435 162.503 252.399 151.625 232.648 222.488 209.685" fill="#fff"/>
      <polygon points="102.539 209.68 91.661 229.43 162.524 252.394 173.402 232.644 102.539 209.68" fill="#fff"/>
      <rect x="91.6609" y="186.3481" width="27.95194" height="43.08217" fill="#fff"/>
    </g>
  </g>
</svg>
